<mxfile host="app.diagrams.net" modified="2023-06-02T16:12:15.718Z" agent="Mozilla/5.0 (X11; Linux x86_64) AppleWebKit/537.36 (KHTML, like Gecko) Chrome/111.0.0.0 Safari/537.36" etag="YlgOFxoivXN3ApxN-DTC" version="21.2.1" type="device">
  <diagram name="HLD-V1" id="9h7Zi5BzIAomywLEZeg5">
    <mxGraphModel dx="2049" dy="1139" grid="0" gridSize="10" guides="1" tooltips="1" connect="1" arrows="1" fold="1" page="1" pageScale="1" pageWidth="850" pageHeight="1100" background="#ffffff" math="0" shadow="0">
      <root>
        <mxCell id="0" />
        <mxCell id="1" parent="0" />
        <mxCell id="KV4Z0bXqSdSKxNZMMV9d-8" value="" style="edgeStyle=orthogonalEdgeStyle;rounded=0;orthogonalLoop=1;jettySize=auto;html=1;" edge="1" parent="1" source="KV4Z0bXqSdSKxNZMMV9d-3" target="KV4Z0bXqSdSKxNZMMV9d-7">
          <mxGeometry relative="1" as="geometry" />
        </mxCell>
        <mxCell id="KV4Z0bXqSdSKxNZMMV9d-3" value="Google sheet" style="rounded=0;whiteSpace=wrap;html=1;" vertex="1" parent="1">
          <mxGeometry x="360.5" y="200" width="115" height="40" as="geometry" />
        </mxCell>
        <mxCell id="KV4Z0bXqSdSKxNZMMV9d-5" style="edgeStyle=orthogonalEdgeStyle;rounded=0;orthogonalLoop=1;jettySize=auto;html=1;entryX=0.5;entryY=0;entryDx=0;entryDy=0;exitX=0.5;exitY=1;exitDx=0;exitDy=0;" edge="1" parent="1" source="KV4Z0bXqSdSKxNZMMV9d-15" target="KV4Z0bXqSdSKxNZMMV9d-3">
          <mxGeometry relative="1" as="geometry">
            <mxPoint x="417.5" y="130" as="sourcePoint" />
          </mxGeometry>
        </mxCell>
        <mxCell id="KV4Z0bXqSdSKxNZMMV9d-6" value="Kontrola" style="edgeLabel;html=1;align=center;verticalAlign=middle;resizable=0;points=[];" vertex="1" connectable="0" parent="KV4Z0bXqSdSKxNZMMV9d-5">
          <mxGeometry x="0.1957" relative="1" as="geometry">
            <mxPoint y="-6" as="offset" />
          </mxGeometry>
        </mxCell>
        <mxCell id="KV4Z0bXqSdSKxNZMMV9d-10" value="" style="edgeStyle=orthogonalEdgeStyle;rounded=0;orthogonalLoop=1;jettySize=auto;html=1;" edge="1" parent="1" source="KV4Z0bXqSdSKxNZMMV9d-7" target="KV4Z0bXqSdSKxNZMMV9d-9">
          <mxGeometry relative="1" as="geometry" />
        </mxCell>
        <mxCell id="KV4Z0bXqSdSKxNZMMV9d-11" value="Ano" style="edgeLabel;html=1;align=center;verticalAlign=middle;resizable=0;points=[];" vertex="1" connectable="0" parent="KV4Z0bXqSdSKxNZMMV9d-10">
          <mxGeometry x="0.204" y="1" relative="1" as="geometry">
            <mxPoint as="offset" />
          </mxGeometry>
        </mxCell>
        <mxCell id="KV4Z0bXqSdSKxNZMMV9d-13" value="" style="edgeStyle=orthogonalEdgeStyle;rounded=0;orthogonalLoop=1;jettySize=auto;html=1;entryX=0;entryY=0.5;entryDx=0;entryDy=0;" edge="1" parent="1" source="KV4Z0bXqSdSKxNZMMV9d-7" target="KV4Z0bXqSdSKxNZMMV9d-17">
          <mxGeometry relative="1" as="geometry">
            <mxPoint x="520" y="330" as="targetPoint" />
          </mxGeometry>
        </mxCell>
        <mxCell id="KV4Z0bXqSdSKxNZMMV9d-14" value="Ne" style="edgeLabel;html=1;align=center;verticalAlign=middle;resizable=0;points=[];" vertex="1" connectable="0" parent="KV4Z0bXqSdSKxNZMMV9d-13">
          <mxGeometry x="-0.3318" y="-1" relative="1" as="geometry">
            <mxPoint as="offset" />
          </mxGeometry>
        </mxCell>
        <mxCell id="KV4Z0bXqSdSKxNZMMV9d-7" value="Nové záznamy?" style="rhombus;whiteSpace=wrap;html=1;" vertex="1" parent="1">
          <mxGeometry x="378" y="290" width="80" height="80" as="geometry" />
        </mxCell>
        <mxCell id="KV4Z0bXqSdSKxNZMMV9d-24" value="" style="edgeStyle=orthogonalEdgeStyle;rounded=0;orthogonalLoop=1;jettySize=auto;html=1;" edge="1" parent="1" source="KV4Z0bXqSdSKxNZMMV9d-9" target="KV4Z0bXqSdSKxNZMMV9d-23">
          <mxGeometry relative="1" as="geometry">
            <Array as="points">
              <mxPoint x="418" y="510" />
              <mxPoint x="418" y="510" />
            </Array>
          </mxGeometry>
        </mxCell>
        <mxCell id="KV4Z0bXqSdSKxNZMMV9d-25" value="Výsledky" style="edgeLabel;html=1;align=center;verticalAlign=middle;resizable=0;points=[];" vertex="1" connectable="0" parent="KV4Z0bXqSdSKxNZMMV9d-24">
          <mxGeometry x="-0.2333" y="-1" relative="1" as="geometry">
            <mxPoint as="offset" />
          </mxGeometry>
        </mxCell>
        <mxCell id="KV4Z0bXqSdSKxNZMMV9d-9" value="Zpracovat (Chat GPT API)" style="rounded=0;whiteSpace=wrap;html=1;" vertex="1" parent="1">
          <mxGeometry x="342" y="430" width="152" height="60" as="geometry" />
        </mxCell>
        <mxCell id="KV4Z0bXqSdSKxNZMMV9d-15" value="Časovač/tlačítko/URL..." style="rounded=1;whiteSpace=wrap;html=1;fillColor=#dae8fc;strokeColor=#6c8ebf;" vertex="1" parent="1">
          <mxGeometry x="352" y="70" width="132" height="60" as="geometry" />
        </mxCell>
        <mxCell id="KV4Z0bXqSdSKxNZMMV9d-17" value="Konec" style="rounded=1;whiteSpace=wrap;html=1;fillColor=#d5e8d4;strokeColor=#82b366;" vertex="1" parent="1">
          <mxGeometry x="520" y="310" width="80" height="40" as="geometry" />
        </mxCell>
        <mxCell id="KV4Z0bXqSdSKxNZMMV9d-36" value="" style="edgeStyle=orthogonalEdgeStyle;rounded=0;orthogonalLoop=1;jettySize=auto;html=1;" edge="1" parent="1" source="KV4Z0bXqSdSKxNZMMV9d-20" target="KV4Z0bXqSdSKxNZMMV9d-35">
          <mxGeometry relative="1" as="geometry" />
        </mxCell>
        <mxCell id="KV4Z0bXqSdSKxNZMMV9d-20" value="Vložit výsledky&lt;br&gt;Google sheet" style="rounded=0;whiteSpace=wrap;html=1;" vertex="1" parent="1">
          <mxGeometry x="360.5" y="700" width="115" height="40" as="geometry" />
        </mxCell>
        <mxCell id="KV4Z0bXqSdSKxNZMMV9d-26" value="" style="edgeStyle=orthogonalEdgeStyle;rounded=0;orthogonalLoop=1;jettySize=auto;html=1;" edge="1" parent="1" source="KV4Z0bXqSdSKxNZMMV9d-23" target="KV4Z0bXqSdSKxNZMMV9d-20">
          <mxGeometry relative="1" as="geometry" />
        </mxCell>
        <mxCell id="KV4Z0bXqSdSKxNZMMV9d-27" value="Ano" style="edgeLabel;html=1;align=center;verticalAlign=middle;resizable=0;points=[];" vertex="1" connectable="0" parent="KV4Z0bXqSdSKxNZMMV9d-26">
          <mxGeometry x="-0.2857" y="3" relative="1" as="geometry">
            <mxPoint as="offset" />
          </mxGeometry>
        </mxCell>
        <mxCell id="KV4Z0bXqSdSKxNZMMV9d-29" value="" style="edgeStyle=orthogonalEdgeStyle;rounded=0;orthogonalLoop=1;jettySize=auto;html=1;" edge="1" parent="1" source="KV4Z0bXqSdSKxNZMMV9d-23" target="KV4Z0bXqSdSKxNZMMV9d-28">
          <mxGeometry relative="1" as="geometry" />
        </mxCell>
        <mxCell id="KV4Z0bXqSdSKxNZMMV9d-30" value="Ne" style="edgeLabel;html=1;align=center;verticalAlign=middle;resizable=0;points=[];" vertex="1" connectable="0" parent="KV4Z0bXqSdSKxNZMMV9d-29">
          <mxGeometry x="-0.3741" y="-1" relative="1" as="geometry">
            <mxPoint as="offset" />
          </mxGeometry>
        </mxCell>
        <mxCell id="KV4Z0bXqSdSKxNZMMV9d-23" value="V pořádku?" style="rhombus;whiteSpace=wrap;html=1;" vertex="1" parent="1">
          <mxGeometry x="378" y="550" width="80" height="80" as="geometry" />
        </mxCell>
        <mxCell id="KV4Z0bXqSdSKxNZMMV9d-32" value="" style="edgeStyle=orthogonalEdgeStyle;rounded=0;orthogonalLoop=1;jettySize=auto;html=1;" edge="1" parent="1" source="KV4Z0bXqSdSKxNZMMV9d-28" target="KV4Z0bXqSdSKxNZMMV9d-31">
          <mxGeometry relative="1" as="geometry" />
        </mxCell>
        <mxCell id="KV4Z0bXqSdSKxNZMMV9d-28" value="Poslat e-mail &lt;br&gt;(popis chyby)" style="whiteSpace=wrap;html=1;" vertex="1" parent="1">
          <mxGeometry x="518" y="560" width="120" height="60" as="geometry" />
        </mxCell>
        <mxCell id="KV4Z0bXqSdSKxNZMMV9d-31" value="Konec" style="rounded=1;whiteSpace=wrap;html=1;fillColor=#f8cecc;strokeColor=#b85450;" vertex="1" parent="1">
          <mxGeometry x="680" y="570" width="80" height="40" as="geometry" />
        </mxCell>
        <mxCell id="KV4Z0bXqSdSKxNZMMV9d-38" value="" style="edgeStyle=orthogonalEdgeStyle;rounded=0;orthogonalLoop=1;jettySize=auto;html=1;" edge="1" parent="1" source="KV4Z0bXqSdSKxNZMMV9d-35" target="KV4Z0bXqSdSKxNZMMV9d-37">
          <mxGeometry relative="1" as="geometry" />
        </mxCell>
        <mxCell id="KV4Z0bXqSdSKxNZMMV9d-35" value="Označit řádky jako zpracované" style="rounded=0;whiteSpace=wrap;html=1;" vertex="1" parent="1">
          <mxGeometry x="360.5" y="800" width="115" height="40" as="geometry" />
        </mxCell>
        <mxCell id="KV4Z0bXqSdSKxNZMMV9d-37" value="Konec" style="rounded=1;whiteSpace=wrap;html=1;fillColor=#d5e8d4;strokeColor=#82b366;" vertex="1" parent="1">
          <mxGeometry x="378" y="880" width="80" height="40" as="geometry" />
        </mxCell>
        <mxCell id="KV4Z0bXqSdSKxNZMMV9d-41" value="" style="endArrow=none;dashed=1;html=1;dashPattern=1 3;strokeWidth=2;rounded=0;" edge="1" parent="1">
          <mxGeometry width="50" height="50" relative="1" as="geometry">
            <mxPoint x="240" y="930" as="sourcePoint" />
            <mxPoint x="240" y="160" as="targetPoint" />
          </mxGeometry>
        </mxCell>
        <mxCell id="KV4Z0bXqSdSKxNZMMV9d-42" value="" style="endArrow=none;dashed=1;html=1;dashPattern=1 3;strokeWidth=2;rounded=0;" edge="1" parent="1">
          <mxGeometry width="50" height="50" relative="1" as="geometry">
            <mxPoint x="780" y="930" as="sourcePoint" />
            <mxPoint x="780" y="160" as="targetPoint" />
          </mxGeometry>
        </mxCell>
        <mxCell id="KV4Z0bXqSdSKxNZMMV9d-43" value="" style="endArrow=none;dashed=1;html=1;dashPattern=1 3;strokeWidth=2;rounded=0;" edge="1" parent="1">
          <mxGeometry width="50" height="50" relative="1" as="geometry">
            <mxPoint x="240" y="160" as="sourcePoint" />
            <mxPoint x="780" y="160" as="targetPoint" />
          </mxGeometry>
        </mxCell>
        <mxCell id="KV4Z0bXqSdSKxNZMMV9d-44" value="" style="endArrow=none;dashed=1;html=1;dashPattern=1 3;strokeWidth=2;rounded=0;" edge="1" parent="1">
          <mxGeometry width="50" height="50" relative="1" as="geometry">
            <mxPoint x="241" y="930" as="sourcePoint" />
            <mxPoint x="781" y="930" as="targetPoint" />
          </mxGeometry>
        </mxCell>
        <mxCell id="KV4Z0bXqSdSKxNZMMV9d-47" value="Backend" style="text;html=1;strokeColor=none;fillColor=none;align=center;verticalAlign=middle;whiteSpace=wrap;rounded=0;" vertex="1" parent="1">
          <mxGeometry x="659" y="160" width="122" height="30" as="geometry" />
        </mxCell>
        <mxCell id="KV4Z0bXqSdSKxNZMMV9d-48" value="" style="endArrow=none;dashed=1;html=1;dashPattern=1 3;strokeWidth=2;rounded=0;" edge="1" parent="1">
          <mxGeometry width="50" height="50" relative="1" as="geometry">
            <mxPoint x="241" y="50" as="sourcePoint" />
            <mxPoint x="781" y="50" as="targetPoint" />
          </mxGeometry>
        </mxCell>
        <mxCell id="KV4Z0bXqSdSKxNZMMV9d-49" value="" style="endArrow=none;dashed=1;html=1;dashPattern=1 3;strokeWidth=2;rounded=0;" edge="1" parent="1">
          <mxGeometry width="50" height="50" relative="1" as="geometry">
            <mxPoint x="241" y="140" as="sourcePoint" />
            <mxPoint x="781" y="140" as="targetPoint" />
          </mxGeometry>
        </mxCell>
        <mxCell id="KV4Z0bXqSdSKxNZMMV9d-50" value="" style="endArrow=none;dashed=1;html=1;dashPattern=1 3;strokeWidth=2;rounded=0;" edge="1" parent="1">
          <mxGeometry width="50" height="50" relative="1" as="geometry">
            <mxPoint x="240" y="140" as="sourcePoint" />
            <mxPoint x="240" y="50" as="targetPoint" />
          </mxGeometry>
        </mxCell>
        <mxCell id="KV4Z0bXqSdSKxNZMMV9d-51" value="" style="endArrow=none;dashed=1;html=1;dashPattern=1 3;strokeWidth=2;rounded=0;" edge="1" parent="1">
          <mxGeometry width="50" height="50" relative="1" as="geometry">
            <mxPoint x="781" y="140" as="sourcePoint" />
            <mxPoint x="781" y="50" as="targetPoint" />
          </mxGeometry>
        </mxCell>
        <mxCell id="KV4Z0bXqSdSKxNZMMV9d-54" value="Frontend" style="text;html=1;strokeColor=none;fillColor=none;align=center;verticalAlign=middle;whiteSpace=wrap;rounded=0;" vertex="1" parent="1">
          <mxGeometry x="659" y="50" width="122" height="30" as="geometry" />
        </mxCell>
        <mxCell id="KV4Z0bXqSdSKxNZMMV9d-55" value="Předpoklad:&lt;br&gt;&lt;span style=&quot;background-color: initial;&quot;&gt;- 1000 volání / &lt;b&gt;měsíc&lt;/b&gt;&lt;/span&gt;&lt;br&gt;&lt;div style=&quot;&quot;&gt;&lt;span style=&quot;background-color: initial;&quot;&gt;- 1000 popisků, každý cca 150 slov / &lt;b&gt;měsíc&lt;/b&gt;&lt;/span&gt;&lt;/div&gt;&lt;div style=&quot;&quot;&gt;&lt;span style=&quot;background-color: initial;&quot;&gt;Cena:&amp;nbsp;&lt;/span&gt;&lt;/div&gt;&lt;div style=&quot;&quot;&gt;&lt;span style=&quot;background-color: initial;&quot;&gt;- Implementace 1500 Kč (jednorázově, bez předání kódu)&lt;/span&gt;&lt;/div&gt;&lt;div style=&quot;&quot;&gt;&lt;span style=&quot;background-color: initial;&quot;&gt;- Provoz: 25 +- 10$ za chat GPT, 1$ hosting&lt;/span&gt;&lt;/div&gt;" style="rounded=0;whiteSpace=wrap;html=1;align=left;" vertex="1" parent="1">
          <mxGeometry x="820" y="50" width="300" height="160" as="geometry" />
        </mxCell>
      </root>
    </mxGraphModel>
  </diagram>
</mxfile>
